# AST/ASF file generated using VICON BodyLanguage
# -----------------------------------------------
:version 1.10
:name VICON
:units
  mass 1.0
  length 0.45
  angle deg
:documentation
   .ast/.asf automatically generated from VICON data using
   VICON BodyBuilder and BodyLanguage model FoxedUp or BRILLIANT.MOD
:root
   order TX TY TZ RX RY RZ
   axis XYZ
   position 0 0 0  
   orientation 0 0 0 
:bonedata
  begin
     id 1 
     name lhipjoint
     direction 0.612567 -0.751349 0.245431 
     length 2.42285 
     axis 0 0 0  XYZ
  end
  begin
     id 2 
     name lfemur
     direction 0.34202 -0.939693 0  
     length 7.11304  
     axis 0 0 20  XYZ
    dof rx ry rz
    limits (-160.0 20.0)
           (-70.0 70.0)
           (-60.0 70.0)
  end
  begin
     id 3 
     name ltibia
     direction 0.34202 -0.939693 0   
     length 7.84529   
     axis 0 0 20   XYZ
    dof rx
    limits (-10.0 170.0)
  end
  begin
     id 4 
     name lfoot
     direction 0.0779239 -0.214094 0.9737   
     length 1.97176   
     axis -90 7.62852e-016 20   XYZ
    dof rx rz
    limits (-45.0 90.0)
           (-70.0 20.0)
  end
  begin
     id 5 
     name ltoes
     direction 1.53565e-011 -4.21709e-011 1   
     length 0.993197   
     axis -90 7.62852e-016 20   XYZ
    dof rx
    limits (-90.0 20.0)
  end
  begin
     id 6 
     name rhipjoint
     direction -0.665722 -0.709315 0.231701   
     length 2.56642  
     axis 0 0 0  XYZ 
  end
  begin
     id 7 
     name rfemur
     direction -0.34202 -0.939693 0   
     length 7.32108   
     axis 0 0 -20   XYZ
    dof rx ry rz
    limits (-160.0 20.0)
           (-70.0 70.0)
           (-70.0 60.0)
  end
  begin
     id 8 
     name rtibia
     direction -0.34202 -0.939693 0   
     length 7.81254   
     axis 0 0 -20   XYZ
    dof rx
    limits (-10.0 170.0)
 end
 begin
     id 9 
     name rfoot
     direction -0.0832806 -0.228812 0.969902   
     length 2.08278  
     axis -90 -7.62852e-016 -20   XYZ
    dof rx rz
    limits (-45.0 90.0)
           (-20.0 70.0)
  end
  begin
     id 10 
     name rtoes
     direction -1.53589e-011 -4.22086e-011 1   
     length 1.04609   
     axis -90 -7.62852e-016 -20   XYZ
    dof rx
    limits (-90.0 20.0)
  end
  begin
     id 11 
     name lowerback
     direction -0.00506013 0.988403 -0.151766   
     length 2.01978   
     axis 0 0 0   XYZ
    dof rx ry rz
    limits (-20.0 45.0)
           (-30.0 30.0)
           (-30.0 30.0)
  end
  begin
     id 12 
     name upperback
     direction -0.00836389 0.99968 0.0238859   
     length 2.01276   
     axis 0 0 0   XYZ
    dof rx ry rz
    limits (-20.0 45.0)
           (-30.0 30.0)
           (-30.0 30.0)
  end
  begin
     id 13 
     name thorax
     direction -0.00684136 0.995386 0.0957043   
     length 2.07303   
     axis 0 0 0   XYZ
    dof rx ry rz
    limits (-20.0 45.0)
           (-30.0 30.0)
           (-30.0 30.0)
  end
  begin
     id 14 
     name lowerneck
     direction -0.0161045 0.999661 0.0204485   
     length 1.91243   
     axis 0 0 0   XYZ
    dof rx ry rz
    limits (-20.0 45.0)
           (-30.0 30.0)
           (-30.0 30.0)
  end
  begin
     id 15 
     name upperneck
     direction 0.0553583 0.990946 -0.122319   
     length 1.91574   
     axis 0 0 0   XYZ
    dof rx ry rz
    limits (-20.0 45.0)
           (-30.0 30.0)
           (-30.0 30.0)
  end
  begin
     id 16
     name head
     direction 0.0180273 0.998839 -0.0446756  
     length 1.92693  
     axis 0 0 0   XYZ
    dof rx ry rz
    limits (-20.0 45.0)
           (-30.0 30.0)
           (-30.0 30.0)
  end
  begin
     id 17 
     name lclavicle
     direction 0.945646 0.319323 -0.0615358  
     length 4.0076  
     axis 0 0 0   XYZ
    dof ry rz
    limits (-20.0 10.0)
           (0.0 20.0)
  end
  begin
     id 18 
     name lhumerus
     direction 1 -4.48967e-011 -2.79996e-027   
     length 5.64147   
     axis 180 -30 -90   XYZ
    dof rx ry rz
    limits (-60.0 90.0)
           (-90.0 90.0)
           (-90.0 90.0)
  end
  begin
     id 19
     name lradius
     direction 1 -4.48976e-011 -9.5122e-027   
     length 2.86444   
     axis 180 -30 -90   XYZ
    dof rx
    limits (-10.0 170.0)
  end
  begin
     id 20
     name lwrist
     direction 1 -4.48983e-011 -1.24047e-026   
     length 1.43222   
     axis 9.05591e-015 90 90   XYZ
    dof ry
    limits (-180.0 0.0)
 end
  begin
     id 21 
     name lhand
     direction 1 -4.4892e-011 -2.48094e-026   
     length 0.722123   
     axis 1.58305e-014 90 90   XYZ
    dof rx rz
    limits (-90.0 90.0)
           (-45.0 45.0)
  end
  begin
     id 22 
     name lfingers
     direction 1 -4.48895e-011 -4.96187e-026   
     length 0.582194   
     axis 3.1661e-014 90 90   XYZ
    dof rx
    limits (0.0 90.0)
  end
  begin
     id 23
     name lthumb
     direction 0.707107 -6.34961e-011 0.707107   
     length 0.835918   
     axis -90 45 2.85299e-015   XYZ
    dof rx rz
    limits (-45.0 45.0)
           (-45.0 45.0)
  end
  begin
     id 24 
     name rclavicle
     direction -0.932635 0.324218 -0.15835   
     length 3.65819  
     axis 0 0 0   XYZ 
    dof ry rz
    limits (-10.0 20.0)
           (-20.0 0.0)
  end
  begin
     id 25 
     name rhumerus
     direction -1 -4.48965e-011 -4.02296e-027  
     length 5.44729   
     axis 180 30 90   XYZ
    dof rx ry rz
    limits (-90.0 60.0)
           (-90.0 90.0)
           (-90.0 90.0)
  end
  begin
     id 26 
     name rradius
     direction -1 -4.48957e-011 -8.81087e-027   
     length 3.08821   
     axis 180 30 90   XYZ
    dof rx
    limits (-10.0 170.0)
  end
  begin
     id 27 
     name rwrist
     direction -1 -4.49015e-011 -1.24047e-026   
     length 1.5441   
     axis 9.05591e-015 -90 -90   XYZ
    dof ry
    limits (-180.0 0.0)
  end
  begin
     id 28
     name rhand
     direction -1 -4.4891e-011 -2.48094e-026   
     length 0.821049   
     axis 1.58305e-014 -90 -90   XYZ
    dof rx rz
    limits (-90.0 90.0)
           (-45.0 45.0)
  end
  begin
     id 29
     name rfingers
     direction -1 -4.48985e-011 -4.96187e-026   
     length 0.661951   
     axis 3.1661e-014 -90 -90   XYZ
    dof rx
    limits (0.0 90.0)
  end
  begin
     id 30
     name rthumb
     direction -0.707107 -6.34906e-011 0.707107   
     length 0.950433   
     axis -90 -45 -2.85299e-015   XYZ
    dof rx rz
    limits (-45.0 45.0)
           (-45.0 45.0)
  end
:hierarchy
  begin
    root lhipjoint rhipjoint lowerback
    lhipjoint lfemur
    lfemur ltibia
    ltibia lfoot
    lfoot ltoes
    rhipjoint rfemur
    rfemur rtibia
    rtibia rfoot
    rfoot rtoes
    lowerback upperback
    upperback thorax
    thorax lowerneck lclavicle rclavicle
    lowerneck upperneck
    upperneck head
    lclavicle lhumerus
    lhumerus lradius
    lradius lwrist
    lwrist lhand lthumb
    lhand lfingers
    rclavicle rhumerus
    rhumerus rradius
    rradius rwrist
    rwrist rhand rthumb
    rhand rfingers
  end

#!OML:ASF F:\VICON\USERDATA\INSTALL\rory3\rory3.ASF
:FULLY-SPECIFIED
:DEGREES
808
root 3.12386 17.7077 0.176995 353.966 89.8476 356.392
lowerback 6.40683 0.42516 2.63988
upperback 0.237513 0.724234 -1.37174
thorax -3.29827 0.315097 -2.96899
lowerneck -3.71338 -5.09747 -5.49847
upperneck 7.16661 -7.08836 8.71853
head 3.24471 -3.31607 3.2342
rclavicle 5.54423e-015 -3.97569e-015
rhumerus 32.2622 22.117 -65.9094
rradius 64.3647
rwrist 15.1521
rhand 0.769366 3.75677
rfingers 7.12502
rthumb 26.3271 -24.436
lclavicle 5.54423e-015 -3.97569e-015
lhumerus 26.8372 -41.4336 63.8868
lradius 55.7267
lwrist 31.1689
lhand -22.3413 13.5852
lfingers 7.12502
lthumb 4.0792 43.5258
rfemur 1.75426 0.444687 18.8056
rtibia 15.3436
rfoot -17.7376 -7.5797
rtoes -10.1928
lfemur 2.26388 0.543464 -16.4491
ltibia 9.45037
lfoot -9.29532 0.176204
ltoes -5.04657
809
root 3.12455 17.7102 0.17895 343.15 89.8316 345.576
lowerback 6.43869 0.501996 2.72559
upperback 0.222688 0.830606 -1.47781
thorax -3.32133 0.365563 -3.13779
lowerneck -3.72564 -5.15953 -5.14401
upperneck 7.18901 -7.18704 8.63774
head 3.24531 -3.35643 3.1469
rclavicle -2.34814e-015 7.95139e-016
rhumerus 31.7646 21.9177 -66.1397
rradius 64.5379
rwrist 15.1472
rhand 0.83259 3.70928
rfingers 7.12502
rthumb 26.3876 -24.4744
lclavicle -2.34814e-015 7.95139e-016
lhumerus 26.7242 -41.807 63.7963
lradius 56.004
lwrist 31.5202
lhand -22.6459 13.3628
lfingers 7.12502
lthumb 3.78507 43.309
rfemur 1.75407 0.44679 18.8559
rtibia 15.3239
rfoot -17.6679 -7.6789
rtoes -10.776
lfemur 2.25534 0.557114 -16.3988
ltibia 9.47594
lfoot -9.33764 0.203579
ltoes -5.28677
810
root 3.12491 17.7126 0.180545 344.021 89.8313 346.421
lowerback 6.44786 0.513281 2.72258
upperback 0.190983 0.845066 -1.49028
thorax -3.35811 0.371501 -3.15089
lowerneck -3.73624 -5.15259 -5.10486
upperneck 7.25181 -7.18209 8.62541
head 3.26368 -3.35158 3.13634
rclavicle -3.32343e-015 4.37326e-015
rhumerus 31.3159 22.0192 -66.1546
rradius 64.8022
rwrist 15.0957
rhand 0.840647 3.72101
rfingers 7.12502
rthumb 26.3953 -24.4616
lclavicle -3.32343e-015 4.37326e-015
lhumerus 26.3408 -41.9227 63.9877
lradius 56.269
lwrist 31.6908
lhand -22.867 13.0014
lfingers 7.12502
lthumb 3.57151 42.9512
rfemur 1.7169 0.409025 18.8605
rtibia 15.3159
rfoot -17.5847 -7.77829
rtoes -10.9581
lfemur 2.23356 0.564388 -16.3975
ltibia 9.46281
lfoot -9.30021 0.22741
ltoes -5.34058
811
root 3.12619 17.712 0.182588 330.555 89.8394 332.929
lowerback 6.44134 0.508296 2.74918
upperback 0.155917 0.83997 -1.48829
thorax -3.39082 0.367276 -3.16369
lowerneck -3.73249 -5.1399 -5.09244
upperneck 7.31949 -7.17085 8.64705
head 3.28285 -3.34313 3.14108
rclavicle -2.36367e-015 1.98785e-015
rhumerus 30.8295 22.1494 -66.1711
rradius 65.0952
rwrist 15.0459
rhand 0.870021 3.83142
rfingers 7.12502
rthumb 26.4234 -24.3469
lclavicle -2.36367e-015 1.98785e-015
lhumerus 25.861 -41.9377 64.2783
lradius 56.5702
lwrist 31.6504
lhand -22.6264 12.7393
lfingers 7.12502
lthumb 3.80393 42.6851
rfemur 1.69975 0.442128 18.9066
rtibia 15.3247
rfoot -17.6566 -7.75055
rtoes -9.8653
lfemur 2.22937 0.548054 -16.3552
ltibia 9.41287
lfoot -9.28833 0.241923
ltoes -5.39032
812
root 3.12876 17.7121 0.184364 354.439 89.9013 356.819
lowerback 6.42119 0.485989 2.6774
upperback 0.153131 0.803818 -1.51174
thorax -3.38571 0.350399 -3.14394
lowerneck -3.74239 -5.12216 -5.08956
upperneck 7.35875 -7.15054 8.66957
head 3.29551 -3.33085 3.14798
rclavicle -4.19933e-015 1.19271e-015
rhumerus 30.3538 22.2943 -66.2568
rradius 65.3777
rwrist 15.0063
rhand 0.73713 3.889
rfingers 7.12502
rthumb 26.2962 -24.3084
lclavicle -4.19933e-015 1.19271e-015
lhumerus 25.3001 -41.8322 64.6279
lradius 56.8876
lwrist 31.4961
lhand -21.8623 12.5622
lfingers 7.12502
lthumb 4.54177 42.4935
rfemur 1.73999 0.446035 18.8393
rtibia 15.3189
rfoot -17.7016 -7.72395
rtoes -9.70122
lfemur 2.24752 0.51061 -16.4204
ltibia 9.39697
lfoot -9.2667 0.22824
ltoes -5.4575
813
root 3.13101 17.7128 0.184648 404.609 89.9107 406.946
lowerback 6.35787 0.477262 2.59292
upperback 0.13221 0.784167 -1.51913
thorax -3.37424 0.341769 -3.10132
lowerneck -3.73551 -5.11509 -5.05983
upperneck 7.39092 -7.14157 8.62772
head 3.3008 -3.32671 3.13087
rclavicle 2.95692e-015 -7.95139e-016
rhumerus 29.8153 22.4483 -66.3358
rradius 65.7082
rwrist 14.8732
rhand 0.584942 3.92272
rfingers 7.12502
rthumb 26.1505 -24.2963
lclavicle 2.95692e-015 -7.95139e-016
lhumerus 24.6792 -41.7807 65.0155
lradius 57.2281
lwrist 31.461
lhand -21.3911 12.3955
lfingers 7.12502
lthumb 4.99668 42.3166
rfemur 1.72666 0.353718 18.7563
rtibia 15.2758
rfoot -17.6273 -7.71688
rtoes -9.98522
lfemur 2.17684 0.483581 -16.494
ltibia 9.43977
lfoot -9.26733 0.217827
ltoes -5.84782
814
root 3.13438 17.7131 0.186303 355.607 89.9361 357.934
lowerback 6.36536 0.469225 2.63682
upperback 0.0806547 0.777126 -1.49241
thorax -3.43217 0.335699 -3.09843
lowerneck -3.67994 -5.10312 -5.02137
upperneck 7.43207 -7.12881 8.59773
head 3.30054 -3.32069 3.11737
rclavicle -4.14031e-015 3.97569e-016
rhumerus 29.1504 22.7037 -66.3767
rradius 66.1249
rwrist 14.7023
rhand 0.350884 3.999
rfingers 7.12502
rthumb 25.9264 -24.253
lclavicle -4.14031e-015 3.97569e-016
lhumerus 23.9236 -41.7883 65.4779
lradius 57.539
lwrist 31.4673
lhand -21.2576 12.1317
lfingers 7.12502
lthumb 5.12563 42.0497
rfemur 1.74823 0.360062 18.8448
rtibia 15.2444
rfoot -17.6342 -7.74765
rtoes -10.7599
lfemur 2.18308 0.488356 -16.4076
ltibia 9.43091
lfoot -9.29068 0.206861
ltoes -5.69942
815
root 3.13953 17.712 0.188428 311.02 89.9007 313.362
lowerback 6.38065 0.476104 2.67819
upperback 0.0506105 0.790366 -1.46091
thorax -3.47083 0.340512 -3.09085
lowerneck -3.66732 -5.12705 -5.00259
upperneck 7.47291 -7.162 8.5613
head 3.31103 -3.3374 3.10153
rclavicle -1.38311e-014 7.15625e-015
rhumerus 28.4174 22.9515 -66.3653
rradius 66.6709
rwrist 14.366
rhand 0.22495 3.99928
rfingers 7.12502
rthumb 25.8058 -24.2703
lclavicle -1.38311e-014 7.15625e-015
lhumerus 23.1552 -41.8033 65.9769
lradius 57.8867
lwrist 31.5102
lhand -20.9595 11.867
lfingers 7.12502
lthumb 5.41346 41.7779
rfemur 1.80764 0.426649 18.9378
rtibia 15.214
rfoot -17.7068 -7.71525
rtoes -10.8778
lfemur 2.23111 0.492886 -16.318
ltibia 9.41271
lfoot -9.295 0.21139
ltoes -5.58311
816
root 3.14399 17.712 0.188721 331.593 89.9106 333.928
lowerback 6.37304 0.47601 2.61452
upperback 0.0251691 0.785799 -1.44178
thorax -3.4943 0.338582 -3.03477
lowerneck -3.67615 -5.1204 -4.99297
upperneck 7.50073 -7.1515 8.51466
head 3.31807 -3.33314 3.08591
rclavicle -5.65604e-015 5.56597e-015
rhumerus 27.6007 23.1792 -66.4464
rradius 67.3197
rwrist 13.963
rhand 0.198034 4.16576
rfingers 7.12502
rthumb 25.78 -24.1076
lclavicle -5.65604e-015 5.56597e-015
lhumerus 22.2763 -41.7331 66.5547
lradius 58.287
lwrist 31.6408
lhand -20.6403 11.6467
lfingers 7.12502
lthumb 5.72161 41.5495
rfemur 1.8201 0.490493 18.9052
rtibia 15.2111
rfoot -17.7574 -7.72095
rtoes -10.0878
lfemur 2.29527 0.511739 -16.3562
ltibia 9.31372
lfoot -9.26391 0.232439
ltoes -5.93864
817
root 3.14923 17.7128 0.186998 371.804 89.8789 374.107
lowerback 6.32374 0.489599 2.54056
upperback 0.00473686 0.797052 -1.44809
thorax -3.48782 0.345175 -3.00001
lowerneck -3.69229 -5.12512 -4.96247
upperneck 7.50406 -7.15737 8.486
head 3.32006 -3.3359 3.07154
rclavicle -7.56624e-015 3.18055e-015
rhumerus 26.661 23.4209 -66.5406
rradius 68.0415
rwrist 13.5555
rhand 0.189856 4.6872
rfingers 7.12502
rthumb 25.7722 -23.5873
lclavicle -7.56624e-015 3.18055e-015
lhumerus 21.2761 -41.5437 67.2513
lradius 58.6863
lwrist 31.8622
lhand -20.0799 11.431
lfingers 7.12502
lthumb 6.26268 41.3185
rfemur 1.76976 0.461946 18.8112
rtibia 15.2673
rfoot -17.7715 -7.64426
rtoes -9.57859
lfemur 2.4159 0.558982 -16.4427
ltibia 9.07974
lfoot -9.19252 0.234809
ltoes -5.98739
818
root 3.15536 17.7158 0.185812 409.878 89.7918 412.149
lowerback 6.2623 0.491288 2.3906
upperback -0.0174675 0.786345 -1.46971
thorax -3.47864 0.342133 -2.93608
lowerneck -3.67457 -5.1278 -5.01157
upperneck 7.46857 -7.16079 8.54272
head 3.3105 -3.33784 3.09724
rclavicle -1.13991e-015 -1.39149e-014
rhumerus 25.6667 23.82 -66.5483
rradius 68.8542
rwrist 13.0073
rhand -0.0275189 5.11997
rfingers 7.12502
rthumb 25.564 -23.1846
lclavicle -1.13991e-015 -1.39149e-014
lhumerus 20.1847 -41.2564 68.0485
lradius 59.0329
lwrist 32.1961
lhand -19.4358 11.1633
lfingers 7.12502
lthumb 6.88449 41.0313
rfemur 1.72234 0.440715 18.6298
rtibia 15.3272
rfoot -17.84 -7.49264
rtoes -8.97375
lfemur 2.50214 0.582115 -16.5998
ltibia 8.88336
lfoot -9.08702 0.248857
ltoes -5.7391
